<?xml version="1.0" encoding="UTF-8" standalone="no"?>
<!-- Created with Inkscape (http://www.inkscape.org/) -->

<svg
   xmlns:dc="http://purl.org/dc/elements/1.1/"
   xmlns:cc="http://creativecommons.org/ns#"
   xmlns:rdf="http://www.w3.org/1999/02/22-rdf-syntax-ns#"
   xmlns:svg="http://www.w3.org/2000/svg"
   xmlns="http://www.w3.org/2000/svg"
   xmlns:sodipodi="http://sodipodi.sourceforge.net/DTD/sodipodi-0.dtd"
   xmlns:inkscape="http://www.inkscape.org/namespaces/inkscape"
   width="744.09448819"
   height="1052.3622047"
   id="svg4125"
   version="1.1"
   inkscape:version="0.48.2 r9819"
   inkscape:export-filename="/opt/backup/Projects/Bype/IOC/IOCVillagePlaza/tablet/doc/startPage.png"
   inkscape:export-xdpi="254.00073"
   inkscape:export-ydpi="254.00073"
   sodipodi:docname="New document 3">
  <defs
     id="defs4127" />
  <sodipodi:namedview
     id="base"
     pagecolor="#ffffff"
     bordercolor="#666666"
     borderopacity="1.0"
     inkscape:pageopacity="0.0"
     inkscape:pageshadow="2"
     inkscape:zoom="0.7"
     inkscape:cx="150.27901"
     inkscape:cy="654.00155"
     inkscape:document-units="px"
     inkscape:current-layer="g4014"
     showgrid="false"
     inkscape:window-width="1920"
     inkscape:window-height="1056"
     inkscape:window-x="0"
     inkscape:window-y="24"
     inkscape:window-maximized="1" />
  <metadata
     id="metadata4130">
    <rdf:RDF>
      <cc:Work
         rdf:about="">
        <dc:format>image/svg+xml</dc:format>
        <dc:type
           rdf:resource="http://purl.org/dc/dcmitype/StillImage" />
        <dc:title></dc:title>
      </cc:Work>
    </rdf:RDF>
  </metadata>
  <g
     inkscape:label="Layer 1"
     inkscape:groupmode="layer"
     id="layer1">
    <g
       id="g4014"
       transform="matrix(1.25,0,0,-1.25,-342.50295,1074.9964)">
      <path
         id="path52"
         style="fill:none;fill-opacity:1;fill-rule:nonzero;stroke:none"
         d="m 666.245,812.351 -226.771,0 0,-362.834 226.771,0 0,362.834 z m -1,-361.834 -224.771,0 0,360.834 224.771,0 0,-360.834 z"
         inkscape:connector-curvature="0" />
      <text
         id="text74"
         transform="matrix(1,0,0,-1,454.8799,488.4521)">
        <tspan
           id="tspan76"
           sodipodi:role="line"
           y="0"
           x="0 1.24 4.6160002 8.0559998 10.52 15.464 19.384001"
           style="font-size:8px;font-variant:normal;font-weight:normal;font-stretch:normal;writing-mode:lr-tb;fill:#231f20;fill-opacity:1;fill-rule:nonzero;stroke:none;font-family:Adobe Arabic;-inkscape-font-specification:AdobeArabic-Regular">العربية</tspan>
      </text>
      <text
         id="text78"
         transform="matrix(1,0,0,-1,504.8959,487.0041)">
        <tspan
           id="tspan80"
           sodipodi:role="line"
           y="0"
           x="0 8"
           style="font-size:8px;font-variant:normal;font-weight:normal;font-stretch:normal;writing-mode:lr-tb;fill:#231f20;fill-opacity:1;fill-rule:nonzero;stroke:none;font-family:Kozuka Gothic Pro R;-inkscape-font-specification:KozGoPro-Regular">中文</tspan>
      </text>
      <text
         id="text82"
         transform="matrix(1,0,0,-1,548.9279,487.1881)">
        <tspan
           id="tspan84"
           sodipodi:role="line"
           y="0"
           x="0 4.888 9.3360004 13.928 15.704 17.48 21.48"
           style="font-size:8px;font-variant:normal;font-weight:normal;font-stretch:normal;writing-mode:lr-tb;fill:#231f20;fill-opacity:1;fill-rule:nonzero;stroke:none;font-family:Helvetica Neue;-inkscape-font-specification:HelveticaNeue">English</tspan>
        <tspan
           id="tspan86"
           sodipodi:role="line"
           y="21.464001"
           x="6.664 11.848 16.440001 19.104 21.624001 26.072001 30.664 35.112 39.408001 -94.056 -89.167999 -85.167999 -80.424004 -76.127998 -71.68 -67.087997 -44.504002 -39.911999 -37.248001 -32.952 -28.504 -24.208 -19.912001 -18.136"
           style="font-size:8px;font-variant:normal;font-weight:normal;font-stretch:normal;writing-mode:lr-tb;fill:#231f20;fill-opacity:1;fill-rule:nonzero;stroke:none;font-family:Helvetica Neue;-inkscape-font-specification:HelveticaNeue">PortuguêsEspañolFrançais</tspan>
      </text>
      <path
         d="m 491.6807,661.3438 -0.018,0 -0.522,0 c -0.334,0 -0.521,0.018 -0.593,0.018 l -1.098,0 -0.576,-0.018 -0.317,0 -0.168,0 c -0.204,0 -0.241,0.038 -0.241,0.223 0,0.167 0.037,0.223 0.241,0.242 l 0.188,0.017 c 0.445,0.039 0.594,0.094 0.649,0.186 0.057,0.094 0.094,0.411 0.094,0.931 l 0,5.058 c 0,0.335 -0.02,0.614 -0.056,0.781 -0.038,0.224 -0.093,0.241 -0.687,0.317 -0.41,0.036 -0.429,0.073 -0.429,0.296 0,0.149 0.056,0.205 0.241,0.205 l 0.168,0 0.317,-0.019 0.576,0 1.098,0 0.575,0 0.298,0.019 0.167,0 0.019,0 c 0.205,0 0.241,-0.056 0.241,-0.223 0,-0.185 -0.055,-0.224 -0.26,-0.242 l -0.167,-0.019 c -0.446,-0.055 -0.595,-0.093 -0.67,-0.203 -0.037,-0.076 -0.074,-0.465 -0.074,-0.912 l 0,-5.058 c 0,-0.502 0.019,-0.762 0.057,-0.874 0.036,-0.129 0.202,-0.186 0.836,-0.243 0.278,-0.036 0.299,-0.036 0.352,-0.073 0.02,-0.036 0.039,-0.093 0.039,-0.205 0,-0.186 -0.039,-0.204 -0.28,-0.204"
         style="fill:#767778;fill-opacity:1;fill-rule:nonzero;stroke:none"
         id="path98"
         inkscape:connector-curvature="0" />
      <path
         d="m 503.9507,669.1162 -0.186,-0.018 -0.259,-0.038 c -0.352,-0.055 -0.409,-0.111 -0.447,-0.333 -0.038,-0.206 -0.074,-0.522 -0.074,-0.783 l -0.056,-6.397 c 0,-0.333 -0.018,-0.371 -0.26,-0.371 -0.037,0 -0.093,0 -0.167,0.019 l -0.112,0 c -0.056,0.019 -0.093,0.037 -0.113,0.056 0,0.017 -0.055,0.073 -0.148,0.186 l -5.318,6.49 -0.093,-4.667 0,-0.28 0,-0.334 c 0,-0.465 0.038,-0.614 0.149,-0.671 0.112,-0.073 0.54,-0.149 1.005,-0.166 0.242,-0.019 0.278,-0.056 0.278,-0.262 0,-0.166 -0.093,-0.203 -0.39,-0.203 l -0.057,0 -0.556,0.017 -0.708,0 c -0.575,0 -1.226,-0.017 -1.468,-0.017 l -0.168,0 -0.075,0 c -0.112,0.017 -0.166,0.093 -0.166,0.242 0,0.093 0.018,0.148 0.074,0.186 0.019,0.018 0.056,0.018 0.278,0.054 0.094,0.019 0.168,0.019 0.243,0.039 l 0.26,0.037 c 0.185,0.018 0.242,0.073 0.278,0.186 0.056,0.111 0.093,0.521 0.112,0.873 l 0.019,0.316 0.224,5.467 -0.057,0.057 c -0.222,0.166 -0.446,0.259 -0.874,0.297 -0.018,0.018 -0.075,0.018 -0.168,0.037 -0.186,0.018 -0.223,0.073 -0.223,0.259 0,0.15 0.094,0.206 0.335,0.206 l 0.094,0 0.335,-0.02 0.631,0 0.819,0 0.074,0.02 5.169,-6.34 -0.11,4.704 c -0.02,0.501 -0.02,0.669 -0.077,0.873 -0.036,0.149 -0.278,0.205 -0.947,0.279 l -0.185,0.019 c -0.186,0 -0.243,0.056 -0.243,0.223 0,0.167 0.074,0.242 0.335,0.242 l 0.093,0 c 0.055,-0.02 0.223,-0.02 0.483,-0.02 l 0.93,0 0.875,0 c 0.203,0 0.353,0 0.408,0.02 l 0.167,0 0.112,-0.02 c 0.13,-0.017 0.167,-0.055 0.167,-0.203 0,-0.186 -0.056,-0.242 -0.242,-0.261"
         style="fill:#767778;fill-opacity:1;fill-rule:nonzero;stroke:none"
         id="path102"
         inkscape:connector-curvature="0" />
      <path
         d="m 514.3799,669.228 c 0,-0.372 -0.038,-0.836 -0.038,-1.078 l 0,-0.206 c -0.018,-0.185 -0.075,-0.222 -0.354,-0.222 -0.241,0 -0.296,0.037 -0.335,0.242 -0.074,0.538 -0.11,0.67 -0.26,0.817 -0.167,0.168 -0.483,0.225 -1.356,0.225 l -0.874,0 0,-6.064 0,-0.185 0.018,-0.26 c 0.038,-0.502 0.092,-0.577 0.689,-0.632 l 0.371,-0.039 0.204,-0.017 0.093,-0.019 c 0.13,-0.018 0.168,-0.056 0.168,-0.186 0,-0.223 -0.038,-0.26 -0.279,-0.26 l -0.168,0 -0.316,0 -0.799,0 -0.67,0.018 -0.651,-0.018 -0.705,0 -0.373,0 -0.037,0 c -0.279,0 -0.317,0.018 -0.317,0.242 0,0.148 0.057,0.186 0.243,0.204 l 0.185,0.036 0.335,0.02 c 0.409,0.019 0.538,0.112 0.595,0.259 0.056,0.132 0.074,0.335 0.074,0.837 l 0,6.064 -0.054,0 -0.671,-0.02 c -0.707,-0.019 -1.041,-0.056 -1.284,-0.167 -0.279,-0.132 -0.501,-0.465 -0.611,-0.875 -0.056,-0.185 -0.094,-0.242 -0.186,-0.242 l -0.093,0 -0.132,0 -0.129,0.039 c -0.111,0.018 -0.15,0.037 -0.15,0.13 l 0.019,0.093 0.02,0.204 0.111,1.004 0.018,0.186 c 0.018,0.205 0.093,0.26 0.39,0.26 l 0.149,0 0.391,-0.018 0.893,0 c 0.631,0 1.58,-0.019 2.453,-0.019 l 1.173,0 0.929,0.019 0.614,0 0.297,0.018 0.131,0 c 0.241,0 0.296,-0.037 0.296,-0.223 l 0,-0.018 -0.017,-0.149 z"
         style="fill:#767778;fill-opacity:1;fill-rule:nonzero;stroke:none"
         id="path106"
         inkscape:connector-curvature="0" />
      <path
         d="m 524.1211,663.0908 -0.076,-0.315 -0.111,-0.578 -0.112,-0.538 c -0.036,-0.186 -0.055,-0.222 -0.093,-0.259 -0.036,-0.039 -0.092,-0.057 -0.206,-0.057 l -0.148,0 -0.39,0 -0.985,0 -1.152,0.018 -2.307,0 -0.557,-0.018 -0.316,0 -0.149,0 c -0.242,0 -0.279,0.038 -0.279,0.223 0,0.168 0.056,0.223 0.242,0.242 l 0.186,0.017 c 0.389,0.039 0.594,0.094 0.65,0.187 0.037,0.075 0.074,0.185 0.074,0.354 0,0.057 0,0.13 0.019,0.242 l 0,0.334 0,5.057 c 0,0.355 -0.019,0.577 -0.056,0.801 -0.019,0.185 -0.093,0.242 -0.39,0.279 l -0.28,0.036 -0.203,0.019 c -0.205,0.037 -0.242,0.074 -0.242,0.26 0,0.169 0.037,0.205 0.242,0.223 l 0.166,-0.018 0.317,0 0.576,-0.019 1.935,0 1.45,0.019 0.78,0 0.39,0 0.019,0 c 0.316,0 0.353,-0.019 0.373,-0.298 l 0.019,-0.222 0.111,-0.968 c 0.019,-0.167 0.019,-0.185 0.019,-0.204 0,-0.149 -0.114,-0.206 -0.409,-0.206 -0.186,0 -0.186,0.02 -0.261,0.262 -0.094,0.371 -0.353,0.724 -0.614,0.837 -0.186,0.092 -0.427,0.148 -0.93,0.148 l -0.707,0 c -0.371,0 -0.612,0.018 -0.743,0.018 l -0.094,0 -0.186,0 0,-2.992 0.82,0 c 0.724,0 1.245,0.036 1.395,0.073 0.166,0.057 0.259,0.224 0.316,0.615 0.035,0.259 0.055,0.279 0.092,0.334 0.037,0.037 0.055,0.037 0.149,0.037 l 0.112,0 0.11,0 c 0.15,-0.02 0.186,-0.075 0.186,-0.242 l 0,-0.205 0,-0.984 0,-0.893 0.02,-0.168 c 0,-0.242 -0.056,-0.297 -0.279,-0.297 l -0.13,0 -0.019,0 c -0.186,0 -0.206,0.038 -0.241,0.373 -0.057,0.371 -0.094,0.501 -0.15,0.594 -0.074,0.11 -0.186,0.15 -0.801,0.15 l -0.76,0 -0.82,0 0,-2.419 0.02,-0.334 0.018,-0.205 c 0,-0.316 0.168,-0.353 1.117,-0.353 0.538,0 1.023,0.037 1.45,0.111 0.539,0.112 0.817,0.355 1.077,0.873 l 0.113,0.225 c 0.056,0.129 0.112,0.166 0.241,0.166 0.279,0 0.409,-0.073 0.409,-0.222 0,-0.038 -0.017,-0.074 -0.017,-0.113"
         style="fill:#767778;fill-opacity:1;fill-rule:nonzero;stroke:none"
         id="path110"
         inkscape:connector-curvature="0" />
      <path
         d="m 529.6938,669.209 -0.259,0 0,-3.459 0.185,0 c 1.488,0 2.307,0.614 2.307,1.73 0,1.171 -0.726,1.729 -2.233,1.729 m 4.649,-7.995 c -1.357,0 -1.914,0.52 -3.421,3.217 -0.111,0.204 -0.204,0.353 -0.26,0.446 -0.093,0.149 -0.149,0.242 -0.223,0.259 -0.075,0.056 -0.242,0.056 -0.596,0.056 l -0.408,0 0,-2.25 c 0,-0.425 0.036,-0.78 0.055,-0.873 0.057,-0.15 0.204,-0.166 0.856,-0.243 0.372,-0.036 0.39,-0.054 0.39,-0.259 0,-0.206 -0.037,-0.223 -0.316,-0.223 l -0.149,0 -0.371,0 c -0.335,0 -0.522,0.017 -0.595,0.017 l -1.042,0 -0.576,-0.017 -0.298,0 -0.168,0 c -0.223,0 -0.259,0.037 -0.259,0.223 0,0.205 0.018,0.223 0.427,0.259 0.652,0.057 0.687,0.093 0.725,0.521 l 0.019,0.279 0,0.316 0,4.91 0,0.428 c 0,0.222 -0.019,0.39 -0.057,0.539 -0.035,0.167 -0.185,0.261 -0.52,0.28 l -0.296,0.017 -0.169,0 -0.073,0.019 c -0.131,0 -0.168,0.074 -0.168,0.242 0,0.167 0.056,0.204 0.389,0.241 l 0.41,0.038 0.541,0.054 c 0.185,0.019 0.444,0.039 0.799,0.057 0.465,0.019 0.816,0.036 1.04,0.036 2.084,0 3.292,-0.743 3.292,-2.062 0,-0.969 -0.633,-1.73 -1.73,-2.138 0.186,-0.226 0.26,-0.317 0.502,-0.707 l 0.8,-1.228 c 0.967,-1.47 1.414,-1.842 2.4,-1.896 0.186,-0.019 0.186,-0.038 0.186,-0.242 0,-0.205 -0.391,-0.316 -1.136,-0.316"
         style="fill:#767778;fill-opacity:1;fill-rule:nonzero;stroke:none"
         id="path114"
         inkscape:connector-curvature="0" />
      <path
         d="m 546.5928,669.1162 -0.186,-0.018 -0.26,-0.038 c -0.351,-0.055 -0.408,-0.111 -0.445,-0.333 -0.038,-0.206 -0.075,-0.522 -0.075,-0.783 l -0.057,-6.397 c 0,-0.333 -0.018,-0.371 -0.259,-0.371 -0.036,0 -0.093,0 -0.166,0.019 l -0.113,0 c -0.056,0.019 -0.093,0.037 -0.112,0.056 0,0.017 -0.056,0.073 -0.15,0.186 l -5.317,6.49 -0.093,-4.667 0,-0.28 0,-0.334 c 0,-0.465 0.038,-0.614 0.15,-0.671 0.111,-0.073 0.539,-0.149 1.003,-0.166 0.243,-0.019 0.28,-0.056 0.28,-0.262 0,-0.166 -0.093,-0.203 -0.391,-0.203 l -0.057,0 -0.557,0.017 -0.706,0 c -0.576,0 -1.226,-0.017 -1.469,-0.017 l -0.168,0 -0.074,0 c -0.112,0.017 -0.166,0.093 -0.166,0.242 0,0.093 0.017,0.148 0.073,0.186 0.02,0.018 0.056,0.018 0.279,0.054 0.093,0.019 0.167,0.019 0.242,0.039 l 0.259,0.037 c 0.187,0.018 0.243,0.073 0.279,0.186 0.056,0.111 0.094,0.521 0.112,0.873 l 0.019,0.316 0.224,5.467 -0.056,0.057 c -0.223,0.166 -0.446,0.259 -0.875,0.297 -0.019,0.018 -0.075,0.018 -0.167,0.037 -0.186,0.018 -0.223,0.073 -0.223,0.259 0,0.15 0.093,0.206 0.335,0.206 l 0.093,0 0.335,-0.02 0.631,0 0.82,0 0.073,0.02 5.169,-6.34 -0.111,4.704 c -0.019,0.501 -0.019,0.669 -0.075,0.873 -0.038,0.149 -0.279,0.205 -0.947,0.279 l -0.186,0.019 c -0.186,0 -0.243,0.056 -0.243,0.223 0,0.167 0.075,0.242 0.336,0.242 l 0.093,0 c 0.054,-0.02 0.223,-0.02 0.482,-0.02 l 0.929,0 0.876,0 c 0.204,0 0.352,0 0.408,0.02 l 0.167,0 0.112,-0.02 c 0.131,-0.017 0.167,-0.055 0.167,-0.203 0,-0.186 -0.055,-0.242 -0.242,-0.261"
         style="fill:#767778;fill-opacity:1;fill-rule:nonzero;stroke:none"
         id="path118"
         inkscape:connector-curvature="0" />
      <path
         d="m 552.8755,668.0371 -1.228,-3.048 2.549,0 -1.321,3.048 z m 4.928,-6.693 -0.148,0 -0.428,0 -1.042,0.017 c -0.167,0 -0.485,-0.017 -0.93,-0.017 l -0.446,0 -0.148,0 -0.019,0 c -0.186,0 -0.243,0.037 -0.243,0.242 0,0.186 0.037,0.204 0.41,0.24 0.502,0.057 0.614,0.094 0.614,0.225 0,0.073 -0.056,0.24 -0.187,0.558 l -0.761,1.766 -3.087,0 -0.707,-1.786 -0.037,-0.149 -0.056,-0.167 c 0,-0.036 0,-0.036 -0.02,-0.111 l 0,-0.074 c 0,-0.168 0.169,-0.186 0.726,-0.262 l 0.131,-0.018 c 0.185,-0.018 0.241,-0.055 0.241,-0.222 0,-0.225 -0.036,-0.242 -0.334,-0.242 l -0.02,0 -0.425,0 -0.95,0 -0.726,0 -0.371,0 c -0.26,0 -0.334,0 -0.373,0.037 -0.037,0.02 -0.054,0.093 -0.054,0.205 0,0.148 0.036,0.204 0.186,0.204 0.63,0.075 0.725,0.13 0.947,0.614 l 0.13,0.279 3.031,6.748 0.092,0.225 c 0.039,0.11 0.096,0.13 0.318,0.13 0.093,0 0.149,-0.02 0.186,-0.02 0.017,0 0.056,-0.017 0.074,-0.037 0.037,-0.019 0.056,-0.056 0.093,-0.111 0.036,-0.074 0.036,-0.074 0.075,-0.187 l 3.068,-6.729 c 0.112,-0.243 0.222,-0.484 0.296,-0.597 0.093,-0.166 0.225,-0.24 0.54,-0.259 l 0.223,-0.02 c 0.076,-0.018 0.112,-0.018 0.149,-0.018 0.168,-0.018 0.205,-0.055 0.205,-0.241 0,-0.166 -0.056,-0.223 -0.223,-0.223"
         style="fill:#767778;fill-opacity:1;fill-rule:nonzero;stroke:none"
         id="path122"
         inkscape:connector-curvature="0" />
      <path
         d="m 567.3208,669.228 c 0,-0.372 -0.037,-0.836 -0.037,-1.078 l 0,-0.206 c -0.019,-0.185 -0.075,-0.222 -0.354,-0.222 -0.24,0 -0.296,0.037 -0.334,0.242 -0.075,0.538 -0.111,0.67 -0.261,0.817 -0.166,0.168 -0.482,0.225 -1.357,0.225 l -0.873,0 0,-6.064 0,-0.185 0.018,-0.26 c 0.037,-0.502 0.094,-0.577 0.688,-0.632 l 0.371,-0.039 0.204,-0.017 0.093,-0.019 c 0.133,-0.018 0.168,-0.056 0.168,-0.186 0,-0.223 -0.035,-0.26 -0.278,-0.26 l -0.168,0 -0.316,0 -0.799,0 -0.669,0.018 -0.652,-0.018 -0.706,0 -0.371,0 -0.037,0 c -0.279,0 -0.318,0.018 -0.318,0.242 0,0.148 0.056,0.186 0.243,0.204 l 0.185,0.036 0.335,0.02 c 0.408,0.019 0.538,0.112 0.594,0.259 0.056,0.132 0.075,0.335 0.075,0.837 l 0,6.064 -0.055,0 -0.67,-0.02 c -0.707,-0.019 -1.041,-0.056 -1.282,-0.167 -0.279,-0.132 -0.503,-0.465 -0.614,-0.875 -0.056,-0.185 -0.093,-0.242 -0.185,-0.242 l -0.095,0 -0.128,0 -0.132,0.039 c -0.111,0.018 -0.147,0.037 -0.147,0.13 l 0.016,0.093 0.02,0.204 0.111,1.004 0.019,0.186 c 0.02,0.205 0.094,0.26 0.391,0.26 l 0.147,0 0.392,-0.018 0.893,0 c 0.63,0 1.58,-0.019 2.453,-0.019 l 1.171,0 0.931,0.019 0.613,0 0.298,0.018 0.13,0 c 0.242,0 0.299,-0.037 0.299,-0.223 l 0,-0.018 -0.02,-0.149 z"
         style="fill:#767778;fill-opacity:1;fill-rule:nonzero;stroke:none"
         id="path126"
         inkscape:connector-curvature="0" />
      <path
         d="m 573.8999,661.3438 -0.018,0 -0.52,0 c -0.335,0 -0.521,0.018 -0.595,0.018 l -1.098,0 -0.578,-0.018 -0.316,0 -0.165,0 c -0.206,0 -0.243,0.038 -0.243,0.223 0,0.167 0.037,0.223 0.243,0.242 l 0.185,0.017 c 0.446,0.039 0.595,0.094 0.651,0.186 0.057,0.094 0.093,0.411 0.093,0.931 l 0,5.058 c 0,0.335 -0.019,0.614 -0.057,0.781 -0.036,0.224 -0.092,0.241 -0.687,0.317 -0.409,0.036 -0.428,0.073 -0.428,0.296 0,0.149 0.056,0.205 0.243,0.205 l 0.165,0 0.316,-0.019 0.578,0 1.098,0 0.576,0 0.297,0.019 0.167,0 0.019,0 c 0.203,0 0.242,-0.056 0.242,-0.223 0,-0.185 -0.056,-0.224 -0.261,-0.242 l -0.167,-0.019 c -0.447,-0.055 -0.594,-0.093 -0.669,-0.203 -0.037,-0.076 -0.073,-0.465 -0.073,-0.912 l 0,-5.058 c 0,-0.502 0.017,-0.762 0.055,-0.874 0.037,-0.129 0.204,-0.186 0.837,-0.243 0.278,-0.036 0.296,-0.036 0.352,-0.073 0.019,-0.036 0.037,-0.093 0.037,-0.205 0,-0.186 -0.037,-0.204 -0.279,-0.204"
         style="fill:#767778;fill-opacity:1;fill-rule:nonzero;stroke:none"
         id="path130"
         inkscape:connector-curvature="0" />
      <path
         d="m 581.1885,669.1719 c -1.879,0 -3.125,-1.357 -3.125,-3.422 0,-2.248 1.395,-3.904 3.291,-3.904 1.841,0 3.142,1.395 3.142,3.366 0,2.323 -1.374,3.96 -3.308,3.96 m -0.13,-8.013 c -2.549,0 -4.351,1.69 -4.351,4.109 0,2.622 2.026,4.555 4.778,4.555 2.585,0 4.388,-1.711 4.388,-4.165 0,-2.567 -2.083,-4.499 -4.815,-4.499"
         style="fill:#767778;fill-opacity:1;fill-rule:nonzero;stroke:none"
         id="path134"
         inkscape:connector-curvature="0" />
      <path
         d="m 597.1743,669.1162 -0.186,-0.018 -0.259,-0.038 c -0.355,-0.055 -0.409,-0.111 -0.448,-0.333 -0.037,-0.206 -0.073,-0.522 -0.073,-0.783 l -0.056,-6.397 c 0,-0.333 -0.017,-0.371 -0.26,-0.371 -0.038,0 -0.093,0 -0.168,0.019 l -0.111,0 c -0.056,0.019 -0.093,0.037 -0.111,0.056 0,0.017 -0.057,0.073 -0.15,0.186 l -5.318,6.49 -0.092,-4.667 0,-0.28 0,-0.334 c 0,-0.465 0.037,-0.614 0.148,-0.671 0.112,-0.073 0.539,-0.149 1.003,-0.166 0.243,-0.019 0.281,-0.056 0.281,-0.262 0,-0.166 -0.095,-0.203 -0.39,-0.203 l -0.057,0 -0.558,0.017 -0.706,0 c -0.575,0 -1.228,-0.017 -1.468,-0.017 l -0.169,0 -0.074,0 c -0.112,0.017 -0.168,0.093 -0.168,0.242 0,0.093 0.019,0.148 0.076,0.186 0.017,0.018 0.056,0.018 0.279,0.054 0.093,0.019 0.166,0.019 0.241,0.039 l 0.26,0.037 c 0.186,0.018 0.243,0.073 0.278,0.186 0.057,0.111 0.094,0.521 0.113,0.873 l 0.017,0.316 0.226,5.467 -0.057,0.057 c -0.223,0.166 -0.447,0.259 -0.875,0.297 -0.018,0.018 -0.074,0.018 -0.167,0.037 -0.186,0.018 -0.223,0.073 -0.223,0.259 0,0.15 0.093,0.206 0.335,0.206 l 0.093,0 0.333,-0.02 0.634,0 0.817,0 0.075,0.02 5.169,-6.34 -0.111,4.704 c -0.019,0.501 -0.019,0.669 -0.074,0.873 -0.037,0.149 -0.279,0.205 -0.949,0.279 l -0.187,0.019 c -0.185,0 -0.239,0.056 -0.239,0.223 0,0.167 0.073,0.242 0.332,0.242 l 0.094,0 c 0.056,-0.02 0.224,-0.02 0.483,-0.02 l 0.929,0 0.875,0 c 0.205,0 0.353,0 0.41,0.02 l 0.166,0 0.113,-0.02 c 0.129,-0.017 0.166,-0.055 0.166,-0.203 0,-0.186 -0.055,-0.242 -0.242,-0.261"
         style="fill:#767778;fill-opacity:1;fill-rule:nonzero;stroke:none"
         id="path138"
         inkscape:connector-curvature="0" />
      <path
         d="m 602.9927,668.0371 -1.229,-3.048 2.549,0 -1.32,3.048 z m 4.927,-6.693 -0.148,0 -0.427,0 -1.042,0.017 c -0.167,0 -0.485,-0.017 -0.93,-0.017 l -0.446,0 -0.149,0 -0.019,0 c -0.186,0 -0.243,0.037 -0.243,0.242 0,0.186 0.038,0.204 0.411,0.24 0.503,0.057 0.613,0.094 0.613,0.225 0,0.073 -0.055,0.24 -0.186,0.558 l -0.761,1.766 -3.087,0 -0.707,-1.786 -0.037,-0.149 -0.056,-0.167 c 0,-0.036 0,-0.036 -0.02,-0.111 l 0,-0.074 c 0,-0.168 0.168,-0.186 0.727,-0.262 l 0.129,-0.018 c 0.187,-0.018 0.242,-0.055 0.242,-0.222 0,-0.225 -0.036,-0.242 -0.335,-0.242 l -0.019,0 -0.425,0 -0.95,0 -0.725,0 -0.372,0 c -0.26,0 -0.334,0 -0.372,0.037 -0.037,0.02 -0.056,0.093 -0.056,0.205 0,0.148 0.039,0.204 0.188,0.204 0.63,0.075 0.724,0.13 0.947,0.614 l 0.129,0.279 3.03,6.748 0.095,0.225 c 0.037,0.11 0.093,0.13 0.316,0.13 0.093,0 0.149,-0.02 0.186,-0.02 0.017,0 0.056,-0.017 0.074,-0.037 0.037,-0.019 0.057,-0.056 0.093,-0.111 0.036,-0.074 0.036,-0.074 0.075,-0.187 l 3.067,-6.729 c 0.111,-0.243 0.224,-0.484 0.297,-0.597 0.093,-0.166 0.225,-0.24 0.54,-0.259 l 0.223,-0.02 c 0.074,-0.018 0.113,-0.018 0.15,-0.018 0.166,-0.018 0.204,-0.055 0.204,-0.241 0,-0.166 -0.056,-0.223 -0.224,-0.223"
         style="fill:#767778;fill-opacity:1;fill-rule:nonzero;stroke:none"
         id="path142"
         inkscape:connector-curvature="0" />
      <path
         d="m 616.8237,663.0908 -0.278,-1.394 c -0.057,-0.296 -0.094,-0.335 -0.243,-0.353 l -0.149,0 -0.261,0 -0.502,0 c -0.222,0 -0.557,0.018 -0.985,0.018 l -1.04,0 -1.898,0 -0.558,-0.018 -0.335,0 -0.13,0 c -0.241,0 -0.279,0.018 -0.279,0.223 0,0.168 0.038,0.223 0.242,0.242 l 0.187,0.017 c 0.427,0.039 0.593,0.094 0.651,0.187 0.056,0.093 0.093,0.428 0.093,0.93 l 0,5.057 c 0,0.335 -0.018,0.594 -0.057,0.781 -0.036,0.225 -0.129,0.279 -0.687,0.335 l -0.187,0.019 c -0.204,0.018 -0.259,0.057 -0.259,0.279 0,0.13 0.073,0.186 0.259,0.186 l 0.167,0 0.318,-0.019 0.575,0 1.022,0 0.69,0 0.372,0.019 0.148,0 c 0.279,0 0.316,-0.036 0.316,-0.241 0,-0.187 -0.019,-0.206 -0.39,-0.243 l -0.372,-0.036 c -0.429,-0.037 -0.539,-0.094 -0.577,-0.26 -0.038,-0.149 -0.055,-0.411 -0.055,-0.82 l 0,-5.057 c 0,-0.297 0.037,-0.633 0.074,-0.745 0.037,-0.129 0.315,-0.185 0.967,-0.185 0.65,0 1.207,0.056 1.58,0.185 0.371,0.132 0.726,0.521 0.93,1.043 0.093,0.261 0.148,0.298 0.279,0.298 0.037,0 0.074,0 0.13,-0.02 0.056,0 0.111,-0.017 0.149,-0.017 0.093,-0.019 0.148,-0.057 0.148,-0.132 0,-0.036 -0.018,-0.129 -0.055,-0.279"
         style="fill:#767778;fill-opacity:1;fill-rule:nonzero;stroke:none"
         id="path146"
         inkscape:connector-curvature="0" />
      <path
         d="m 522.5854,654.3003 c -1.877,0 -3.123,-1.358 -3.123,-3.422 0,-2.248 1.394,-3.904 3.29,-3.904 1.842,0 3.143,1.395 3.143,3.366 0,2.323 -1.378,3.96 -3.31,3.96 m -0.129,-8.013 c -2.549,0 -4.351,1.69 -4.351,4.109 0,2.622 2.025,4.555 4.776,4.555 2.586,0 4.388,-1.71 4.388,-4.165 0,-2.566 -2.081,-4.499 -4.813,-4.499"
         style="fill:#767778;fill-opacity:1;fill-rule:nonzero;stroke:none"
         id="path150"
         inkscape:connector-curvature="0" />
      <path
         d="m 536.3042,648.2202 -0.278,-1.395 c -0.057,-0.296 -0.094,-0.334 -0.243,-0.353 l -0.148,0 -0.26,0 -0.504,0 c -0.223,0 -0.558,0.019 -0.984,0.019 l -1.042,0 -1.895,0 -0.558,-0.019 -0.335,0 -0.132,0 c -0.239,0 -0.278,0.019 -0.278,0.223 0,0.167 0.039,0.223 0.241,0.242 l 0.186,0.018 c 0.428,0.038 0.596,0.093 0.651,0.185 0.056,0.094 0.093,0.429 0.093,0.93 l 0,5.058 c 0,0.336 -0.017,0.595 -0.054,0.781 -0.039,0.225 -0.132,0.278 -0.69,0.336 l -0.186,0.018 c -0.202,0.019 -0.259,0.057 -0.259,0.279 0,0.131 0.074,0.186 0.259,0.186 l 0.169,0 0.315,-0.019 0.578,0 1.022,0 0.687,0 0.373,0.019 0.148,0 c 0.28,0 0.316,-0.037 0.316,-0.242 0,-0.186 -0.019,-0.204 -0.391,-0.241 l -0.372,-0.037 c -0.428,-0.037 -0.538,-0.094 -0.575,-0.26 -0.038,-0.15 -0.056,-0.411 -0.056,-0.82 l 0,-5.058 c 0,-0.296 0.036,-0.63 0.074,-0.743 0.037,-0.13 0.315,-0.187 0.968,-0.187 0.65,0 1.208,0.057 1.58,0.187 0.372,0.131 0.725,0.52 0.93,1.042 0.092,0.261 0.149,0.297 0.278,0.297 0.037,0 0.074,0 0.13,-0.019 0.056,0 0.112,-0.017 0.15,-0.017 0.092,-0.02 0.149,-0.056 0.149,-0.132 0,-0.037 -0.02,-0.129 -0.057,-0.278"
         style="fill:#767778;fill-opacity:1;fill-rule:nonzero;stroke:none"
         id="path154"
         inkscape:connector-curvature="0" />
      <path
         d="m 546.3252,654.2637 c -0.28,-0.037 -0.392,-0.076 -0.522,-0.168 -0.129,-0.093 -0.241,-0.223 -0.613,-0.745 l -2.381,-3.326 0,-1.954 c 0,-0.501 0,-0.688 0.037,-0.818 0.037,-0.186 0.15,-0.222 0.707,-0.259 0.392,-0.039 0.633,-0.075 0.707,-0.093 0.074,-0.019 0.094,-0.039 0.094,-0.225 0,-0.185 -0.038,-0.203 -0.336,-0.203 l -0.186,0 -0.502,0 -0.651,0.018 -1.042,0 -0.577,-0.018 -0.425,0 -0.242,0 -0.113,0 c -0.148,0 -0.185,0.056 -0.185,0.242 0,0.186 0.019,0.204 0.39,0.24 l 0.428,0.039 c 0.39,0.037 0.52,0.093 0.558,0.259 0.037,0.13 0.037,0.372 0.037,0.818 l 0,1.954 -2.323,3.309 c -0.318,0.445 -0.465,0.631 -0.559,0.725 -0.112,0.112 -0.279,0.186 -0.69,0.223 -0.258,0.038 -0.296,0.038 -0.296,0.205 0,0.222 0.038,0.241 0.39,0.241 l 0.186,0 0.504,0 c 0.296,0 0.557,-0.019 0.816,-0.019 0.41,0 0.986,0.037 1.432,0.037 l 0.187,0 c 0.297,0 0.353,-0.037 0.353,-0.24 0,-0.168 -0.037,-0.205 -0.241,-0.224 l -0.168,-0.018 -0.242,-0.037 c -0.391,-0.056 -0.484,-0.092 -0.484,-0.242 0,-0.075 0.112,-0.262 0.279,-0.521 l 1.804,-2.715 1.674,2.585 c 0.224,0.353 0.353,0.595 0.353,0.707 0,0.147 -0.111,0.186 -0.558,0.223 l -0.259,0.018 c -0.261,0.019 -0.298,0.038 -0.298,0.224 0,0.186 0.073,0.222 0.258,0.24 l 0.206,0 0.428,0 0.763,-0.018 0.78,0.018 0.501,0 0.13,0 c 0.299,0 0.336,-0.018 0.336,-0.24 0,-0.186 -0.018,-0.205 -0.445,-0.242"
         style="fill:#767778;fill-opacity:1;fill-rule:nonzero;stroke:none"
         id="path158"
         inkscape:connector-curvature="0" />
      <path
         d="m 560.5449,646.4727 -0.166,0 -0.577,0 c -0.203,0.018 -0.521,0.018 -0.948,0.018 -0.65,-0.018 -0.874,-0.018 -1.32,-0.018 l -0.168,0 c -0.223,0 -0.26,0.037 -0.26,0.26 0,0.149 0.037,0.186 0.223,0.205 l 0.167,0.017 0.297,0.039 c 0.28,0.037 0.392,0.093 0.429,0.223 0.019,0.056 0.036,0.149 0.036,0.521 l 0,0.054 -0.13,5.114 -2.994,-6.284 c -0.055,-0.131 -0.092,-0.149 -0.223,-0.149 l -0.074,0 -0.093,0 c -0.094,0 -0.148,0.018 -0.185,0.056 l -0.038,0.093 -3.18,6.266 -0.054,-4.705 0,-0.056 c 0,-0.372 0.017,-0.761 0.037,-0.854 0.017,-0.132 0.092,-0.186 0.222,-0.224 0.094,-0.018 0.187,-0.038 0.298,-0.055 0.204,-0.02 0.316,-0.039 0.352,-0.039 l 0.224,-0.017 c 0.242,-0.019 0.279,-0.056 0.279,-0.242 0,-0.186 -0.057,-0.223 -0.279,-0.223 l -0.204,0 -0.447,0 -0.967,0.018 -0.799,-0.018 -0.445,0 -0.187,0 c -0.205,0 -0.242,0.037 -0.242,0.242 0,0.147 0.037,0.204 0.242,0.223 l 0.187,0.017 c 0.687,0.076 0.742,0.132 0.76,0.558 0.02,0.093 0.02,0.187 0.02,0.279 0.018,0.149 0.018,0.262 0.018,0.318 l 0.224,5.318 c 0,0.129 0.017,0.259 0.017,0.334 0,0.296 -0.073,0.353 -0.502,0.409 l -0.297,0.037 -0.204,0.019 c -0.15,0.018 -0.223,0.074 -0.223,0.148 l 0,0.112 c 0.018,0.167 0.073,0.222 0.259,0.222 l 0.149,0 0.298,-0.017 0.576,0 0.074,0 0.447,0 c 0.205,0 0.372,0 0.484,0.017 l 0.093,0 3.31,-6.488 3.104,6.488 c 0.206,-0.017 0.633,-0.017 0.949,-0.017 l 0.056,0 0.482,0 0.392,0.017 0.186,0 0.019,0 0.111,0 c 0.131,0 0.185,-0.073 0.185,-0.241 0,-0.167 -0.054,-0.167 -0.425,-0.241 l -0.318,-0.056 c -0.316,-0.056 -0.389,-0.075 -0.389,-0.242 l -0.02,-0.13 0,-0.316 0,-0.317 0.15,-5.335 c 0,-0.279 0.056,-0.614 0.092,-0.69 0.056,-0.092 0.26,-0.147 0.836,-0.186 0.299,-0.017 0.353,-0.054 0.353,-0.24 0,-0.186 -0.054,-0.242 -0.279,-0.242"
         style="fill:#767778;fill-opacity:1;fill-rule:nonzero;stroke:none"
         id="path162"
         inkscape:connector-curvature="0" />
      <path
         d="m 567.2729,650.1719 c -0.315,0 -0.576,0.02 -0.799,0.074 -0.13,0.019 -0.167,0.057 -0.167,0.168 0,0.205 0.073,0.298 0.242,0.298 l 0.074,0 0.149,0 c 0.036,-0.019 0.093,-0.019 0.129,-0.019 1.321,0 2.138,0.669 2.138,1.749 0,0.5 -0.185,0.91 -0.52,1.227 -0.483,0.445 -1.022,0.595 -2.288,0.595 l 0,-6.194 0,-0.333 c 0,-0.447 0.04,-0.54 0.169,-0.614 0.13,-0.075 0.428,-0.112 0.911,-0.149 l 0.278,-0.019 c 0.372,-0.017 0.411,-0.036 0.411,-0.26 0,-0.166 -0.039,-0.222 -0.186,-0.222 l -0.132,0 -0.24,0 -0.318,0 -0.539,0.018 -0.483,0 -1.059,0 -0.578,-0.018 -0.296,0 -0.168,0 c -0.223,0 -0.26,0.036 -0.26,0.222 0,0.167 0.056,0.224 0.26,0.243 0.819,0.073 0.855,0.093 0.892,0.558 l 0.02,0.259 0,0.315 0,4.91 0,0.372 -0.02,0.298 c -0.037,0.501 -0.11,0.521 -0.799,0.595 l -0.186,0.019 c -0.242,0 -0.296,0.056 -0.296,0.242 0,0.167 0.054,0.203 0.259,0.24 l 0.259,0.038 0.597,0.055 0.947,0.056 c 0.355,0.019 0.706,0.037 1.079,0.037 2.362,0 3.627,-0.798 3.627,-2.287 0,-1.394 -1.357,-2.473 -3.107,-2.473"
         style="fill:#767778;fill-opacity:1;fill-rule:nonzero;stroke:none"
         id="path166"
         inkscape:connector-curvature="0" />
      <path
         d="m 576.4575,646.4727 -0.02,0 -0.52,0 c -0.335,0 -0.521,0.018 -0.595,0.018 l -1.096,0 -0.578,-0.018 -0.315,0 -0.168,0 c -0.204,0 -0.242,0.037 -0.242,0.223 0,0.166 0.038,0.223 0.242,0.242 l 0.186,0.017 c 0.447,0.039 0.595,0.094 0.649,0.186 0.058,0.093 0.094,0.411 0.094,0.93 l 0,5.058 c 0,0.335 -0.018,0.614 -0.054,0.781 -0.04,0.225 -0.094,0.242 -0.689,0.317 -0.408,0.037 -0.428,0.074 -0.428,0.296 0,0.15 0.056,0.205 0.242,0.205 l 0.168,0 0.315,-0.019 0.578,0 1.096,0 0.577,0 0.297,0.019 0.168,0 0.017,0 c 0.205,0 0.243,-0.055 0.243,-0.222 0,-0.186 -0.057,-0.224 -0.26,-0.242 l -0.168,-0.019 c -0.446,-0.057 -0.594,-0.093 -0.67,-0.204 -0.037,-0.076 -0.074,-0.465 -0.074,-0.912 l 0,-5.058 c 0,-0.501 0.019,-0.761 0.056,-0.873 0.036,-0.131 0.206,-0.187 0.837,-0.243 0.279,-0.036 0.298,-0.036 0.354,-0.073 0.018,-0.037 0.037,-0.093 0.037,-0.206 0,-0.185 -0.037,-0.203 -0.279,-0.203"
         style="fill:#767778;fill-opacity:1;fill-rule:nonzero;stroke:none"
         id="path170"
         inkscape:connector-curvature="0" />
      <path
         d="m 586.8501,648.2944 -0.037,-0.131 -0.225,-0.947 -0.037,-0.094 c -0.037,-0.167 -0.094,-0.222 -0.316,-0.314 -0.892,-0.355 -1.785,-0.521 -2.751,-0.521 -2.789,0 -4.704,1.653 -4.704,4.09 0,2.659 2.138,4.537 5.112,4.537 0.783,0 1.544,-0.113 2.251,-0.355 0.242,-0.073 0.297,-0.129 0.314,-0.333 l 0.021,-0.149 0.056,-0.687 0.017,-0.225 0.02,-0.147 c 0,-0.113 -0.15,-0.188 -0.448,-0.188 -0.11,0 -0.166,0.039 -0.185,0.131 l -0.055,0.13 c -0.299,0.707 -1.023,1.117 -2.232,1.117 -2.12,0 -3.513,-1.358 -3.513,-3.44 0,-2.177 1.43,-3.758 3.458,-3.758 1.208,0 1.97,0.429 2.547,1.265 l 0.129,0.186 c 0.037,0.093 0.094,0.112 0.185,0.112 0.207,0 0.411,-0.075 0.411,-0.148 0,-0.037 0,-0.074 -0.018,-0.131"
         style="fill:#767778;fill-opacity:1;fill-rule:nonzero;stroke:none"
         id="path174"
         inkscape:connector-curvature="0" />
      <path
         d="m 513.6548,633.4238 -0.039,-0.132 -0.223,-0.947 -0.035,-0.093 c -0.039,-0.168 -0.094,-0.223 -0.317,-0.315 -0.892,-0.355 -1.784,-0.522 -2.752,-0.522 -2.788,0 -4.703,1.655 -4.703,4.091 0,2.658 2.137,4.537 5.112,4.537 0.781,0 1.543,-0.112 2.25,-0.354 0.242,-0.075 0.297,-0.13 0.316,-0.333 l 0.02,-0.149 0.054,-0.688 0.02,-0.225 0.018,-0.147 c 0,-0.112 -0.148,-0.187 -0.447,-0.187 -0.11,0 -0.167,0.038 -0.186,0.131 l -0.056,0.13 c -0.296,0.706 -1.023,1.115 -2.231,1.115 -2.119,0 -3.515,-1.358 -3.515,-3.439 0,-2.177 1.433,-3.757 3.459,-3.757 1.208,0 1.971,0.427 2.548,1.264 l 0.13,0.186 c 0.036,0.093 0.093,0.113 0.186,0.113 0.205,0 0.409,-0.076 0.409,-0.15 0,-0.036 0,-0.074 -0.018,-0.129"
         style="fill:#767778;fill-opacity:1;fill-rule:nonzero;stroke:none"
         id="path178"
         inkscape:connector-curvature="0" />
      <path
         d="m 520.29,639.4287 c -1.879,0 -3.124,-1.357 -3.124,-3.422 0,-2.248 1.395,-3.904 3.29,-3.904 1.842,0 3.144,1.394 3.144,3.366 0,2.323 -1.376,3.96 -3.31,3.96 m -0.129,-8.014 c -2.549,0 -4.352,1.691 -4.352,4.11 0,2.622 2.025,4.555 4.778,4.555 2.586,0 4.388,-1.711 4.388,-4.165 0,-2.567 -2.081,-4.5 -4.814,-4.5"
         style="fill:#767778;fill-opacity:1;fill-rule:nonzero;stroke:none"
         id="path182"
         inkscape:connector-curvature="0" />
      <path
         d="m 538.3032,631.6016 -0.167,0 -0.576,0 c -0.205,0.018 -0.521,0.018 -0.949,0.018 -0.651,-0.018 -0.873,-0.018 -1.32,-0.018 l -0.167,0 c -0.222,0 -0.262,0.036 -0.262,0.259 0,0.149 0.04,0.186 0.225,0.206 l 0.167,0.017 0.298,0.039 c 0.279,0.037 0.39,0.093 0.426,0.223 0.019,0.055 0.038,0.149 0.038,0.52 l 0,0.054 -0.131,5.115 -2.992,-6.284 c -0.056,-0.131 -0.093,-0.149 -0.225,-0.149 l -0.073,0 -0.093,0 c -0.093,0 -0.15,0.018 -0.187,0.056 l -0.036,0.093 -3.18,6.265 -0.057,-4.705 0,-0.055 c 0,-0.373 0.021,-0.761 0.038,-0.855 0.019,-0.132 0.093,-0.185 0.223,-0.224 0.093,-0.017 0.185,-0.037 0.297,-0.054 0.205,-0.02 0.317,-0.039 0.354,-0.039 l 0.224,-0.017 c 0.242,-0.02 0.279,-0.057 0.279,-0.242 0,-0.187 -0.057,-0.223 -0.279,-0.223 l -0.205,0 -0.446,0 -0.968,0.018 -0.798,-0.018 -0.448,0 -0.185,0 c -0.206,0 -0.242,0.036 -0.242,0.242 0,0.147 0.036,0.203 0.242,0.223 l 0.185,0.017 c 0.688,0.076 0.744,0.132 0.763,0.558 0.018,0.092 0.018,0.186 0.018,0.278 0.02,0.15 0.02,0.262 0.02,0.318 l 0.221,5.318 c 0,0.129 0.02,0.259 0.02,0.335 0,0.296 -0.075,0.353 -0.5,0.409 l -0.299,0.035 -0.206,0.021 c -0.149,0.017 -0.222,0.073 -0.222,0.147 l 0,0.112 c 0.019,0.167 0.073,0.224 0.259,0.224 l 0.15,0 0.297,-0.018 0.577,0 0.074,0 0.445,0 c 0.207,0 0.373,0 0.484,0.018 l 0.094,0 3.309,-6.49 3.107,6.49 c 0.203,-0.018 0.631,-0.018 0.946,-0.018 l 0.058,0 0.482,0 0.391,0.018 0.185,0 0.02,0 0.111,0 c 0.131,0 0.186,-0.075 0.186,-0.243 0,-0.167 -0.055,-0.167 -0.427,-0.24 l -0.316,-0.056 c -0.318,-0.056 -0.391,-0.075 -0.391,-0.242 l -0.019,-0.13 0,-0.316 0,-0.318 0.148,-5.334 c 0,-0.279 0.057,-0.614 0.093,-0.691 0.057,-0.092 0.263,-0.146 0.838,-0.185 0.297,-0.017 0.353,-0.055 0.353,-0.24 0,-0.186 -0.056,-0.242 -0.279,-0.242"
         style="fill:#767778;fill-opacity:1;fill-rule:nonzero;stroke:none"
         id="path186"
         inkscape:connector-curvature="0" />
      <path
         d="m 552.6548,631.6016 -0.169,0 -0.575,0 c -0.205,0.018 -0.521,0.018 -0.949,0.018 -0.651,-0.018 -0.873,-0.018 -1.321,-0.018 l -0.166,0 c -0.223,0 -0.259,0.036 -0.259,0.259 0,0.149 0.036,0.186 0.222,0.206 l 0.167,0.017 0.298,0.039 c 0.278,0.037 0.389,0.093 0.427,0.223 0.018,0.055 0.037,0.149 0.037,0.52 l 0,0.054 -0.129,5.115 -2.995,-6.284 c -0.055,-0.131 -0.092,-0.149 -0.222,-0.149 l -0.075,0 -0.094,0 c -0.092,0 -0.148,0.018 -0.186,0.056 l -0.035,0.093 -3.181,6.265 -0.057,-4.705 0,-0.055 c 0,-0.373 0.02,-0.761 0.038,-0.855 0.019,-0.132 0.093,-0.185 0.224,-0.224 0.093,-0.017 0.186,-0.037 0.297,-0.054 0.205,-0.02 0.317,-0.039 0.354,-0.039 l 0.223,-0.017 c 0.242,-0.02 0.278,-0.057 0.278,-0.242 0,-0.187 -0.055,-0.223 -0.278,-0.223 l -0.205,0 -0.445,0 -0.967,0.018 -0.8,-0.018 -0.448,0 -0.185,0 c -0.204,0 -0.242,0.036 -0.242,0.242 0,0.147 0.038,0.203 0.242,0.223 l 0.185,0.017 c 0.689,0.076 0.745,0.132 0.763,0.558 0.02,0.092 0.02,0.186 0.02,0.278 0.017,0.15 0.017,0.262 0.017,0.318 l 0.223,5.318 c 0,0.129 0.019,0.259 0.019,0.335 0,0.296 -0.073,0.353 -0.501,0.409 l -0.298,0.035 -0.203,0.021 c -0.15,0.017 -0.225,0.073 -0.225,0.147 l 0,0.112 c 0.019,0.167 0.075,0.224 0.261,0.224 l 0.149,0 0.296,-0.018 0.577,0 0.074,0 0.447,0 c 0.204,0 0.372,0 0.483,0.018 l 0.094,0 3.308,-6.49 3.107,6.49 c 0.203,-0.018 0.63,-0.018 0.949,-0.018 l 0.053,0 0.485,0 0.391,0.018 0.187,0 0.017,0 0.112,0 c 0.13,0 0.186,-0.075 0.186,-0.243 0,-0.167 -0.056,-0.167 -0.429,-0.24 l -0.315,-0.056 c -0.316,-0.056 -0.391,-0.075 -0.391,-0.242 l -0.017,-0.13 0,-0.316 0,-0.318 0.147,-5.334 c 0,-0.279 0.056,-0.614 0.093,-0.691 0.056,-0.092 0.261,-0.146 0.836,-0.185 0.298,-0.017 0.354,-0.055 0.354,-0.24 0,-0.186 -0.056,-0.242 -0.278,-0.242"
         style="fill:#767778;fill-opacity:1;fill-rule:nonzero;stroke:none"
         id="path190"
         inkscape:connector-curvature="0" />
      <path
         d="m 559.4365,631.6016 -0.017,0 -0.521,0 c -0.335,0 -0.522,0.018 -0.594,0.018 l -1.098,0 -0.578,-0.018 -0.315,0 -0.167,0 c -0.205,0 -0.242,0.036 -0.242,0.223 0,0.166 0.037,0.222 0.242,0.242 l 0.186,0.017 c 0.445,0.039 0.594,0.093 0.65,0.185 0.057,0.094 0.094,0.412 0.094,0.93 l 0,5.059 c 0,0.335 -0.02,0.614 -0.056,0.781 -0.038,0.224 -0.094,0.241 -0.688,0.317 -0.408,0.037 -0.428,0.073 -0.428,0.296 0,0.15 0.055,0.205 0.242,0.205 l 0.167,0 0.315,-0.018 0.578,0 1.098,0 0.575,0 0.298,0.018 0.167,0 0.018,0 c 0.206,0 0.243,-0.055 0.243,-0.223 0,-0.185 -0.056,-0.224 -0.261,-0.241 l -0.167,-0.02 c -0.446,-0.056 -0.595,-0.093 -0.67,-0.203 -0.037,-0.075 -0.074,-0.465 -0.074,-0.912 l 0,-5.059 c 0,-0.501 0.02,-0.761 0.056,-0.873 0.037,-0.129 0.204,-0.186 0.837,-0.242 0.279,-0.037 0.298,-0.037 0.352,-0.074 0.019,-0.036 0.039,-0.093 0.039,-0.205 0,-0.185 -0.039,-0.203 -0.281,-0.203"
         style="fill:#767778;fill-opacity:1;fill-rule:nonzero;stroke:none"
         id="path194"
         inkscape:connector-curvature="0" />
      <path
         d="m 570.313,639.4854 c 0,-0.372 -0.036,-0.837 -0.036,-1.079 l 0,-0.205 c -0.021,-0.186 -0.075,-0.223 -0.354,-0.223 -0.242,0 -0.298,0.037 -0.335,0.242 -0.075,0.539 -0.111,0.671 -0.26,0.818 -0.167,0.168 -0.483,0.224 -1.359,0.224 l -0.873,0 0,-6.064 0,-0.185 0.019,-0.26 c 0.038,-0.501 0.094,-0.577 0.688,-0.631 l 0.372,-0.039 0.205,-0.017 0.093,-0.019 c 0.13,-0.019 0.167,-0.057 0.167,-0.187 0,-0.223 -0.037,-0.259 -0.279,-0.259 l -0.167,0 -0.318,0 -0.797,0 -0.67,0.018 -0.652,-0.018 -0.706,0 -0.372,0 -0.036,0 c -0.28,0 -0.316,0.018 -0.316,0.242 0,0.147 0.054,0.185 0.24,0.204 l 0.186,0.036 0.335,0.019 c 0.408,0.02 0.54,0.113 0.595,0.26 0.056,0.132 0.074,0.335 0.074,0.836 l 0,6.064 -0.055,0 -0.67,-0.019 c -0.705,-0.019 -1.04,-0.057 -1.282,-0.167 -0.279,-0.132 -0.501,-0.465 -0.614,-0.875 -0.057,-0.186 -0.093,-0.242 -0.186,-0.242 l -0.093,0 -0.13,0 -0.129,0.039 c -0.113,0.017 -0.15,0.036 -0.15,0.129 l 0.018,0.093 0.019,0.205 0.113,1.003 0.017,0.186 c 0.019,0.206 0.093,0.261 0.391,0.261 l 0.149,0 0.389,-0.019 0.893,0 c 0.633,0 1.581,-0.018 2.456,-0.018 l 1.17,0 0.931,0.018 0.612,0 0.298,0.019 0.131,0 c 0.242,0 0.298,-0.037 0.298,-0.224 l 0,-0.018 -0.02,-0.148 z"
         style="fill:#767778;fill-opacity:1;fill-rule:nonzero;stroke:none"
         id="path198"
         inkscape:connector-curvature="0" />
      <path
         d="m 580.6689,639.4854 c 0,-0.372 -0.039,-0.837 -0.039,-1.079 l 0,-0.205 c -0.017,-0.186 -0.073,-0.223 -0.353,-0.223 -0.241,0 -0.297,0.037 -0.334,0.242 -0.074,0.539 -0.112,0.671 -0.26,0.818 -0.168,0.168 -0.484,0.224 -1.357,0.224 l -0.876,0 0,-6.064 0,-0.185 0.019,-0.26 c 0.037,-0.501 0.094,-0.577 0.688,-0.631 l 0.372,-0.039 0.205,-0.017 0.093,-0.019 c 0.13,-0.019 0.167,-0.057 0.167,-0.187 0,-0.223 -0.037,-0.259 -0.28,-0.259 l -0.165,0 -0.316,0 -0.8,0 -0.67,0.018 -0.652,-0.018 -0.707,0 -0.371,0 -0.037,0 c -0.279,0 -0.316,0.018 -0.316,0.242 0,0.147 0.057,0.185 0.242,0.204 l 0.186,0.036 0.333,0.019 c 0.411,0.02 0.541,0.113 0.597,0.26 0.056,0.132 0.073,0.335 0.073,0.836 l 0,6.064 -0.055,0 -0.669,-0.019 c -0.707,-0.019 -1.042,-0.057 -1.284,-0.167 -0.278,-0.132 -0.501,-0.465 -0.613,-0.875 -0.054,-0.186 -0.092,-0.242 -0.185,-0.242 l -0.094,0 -0.13,0 -0.13,0.039 c -0.112,0.017 -0.148,0.036 -0.148,0.129 l 0.018,0.093 0.018,0.205 0.112,1.003 0.018,0.186 c 0.02,0.206 0.094,0.261 0.391,0.261 l 0.15,0 0.39,-0.019 0.891,0 c 0.633,0 1.583,-0.018 2.456,-0.018 l 1.172,0 0.929,0.018 0.614,0 0.296,0.019 0.132,0 c 0.24,0 0.296,-0.037 0.296,-0.224 l 0,-0.018 -0.017,-0.148 z"
         style="fill:#767778;fill-opacity:1;fill-rule:nonzero;stroke:none"
         id="path202"
         inkscape:connector-curvature="0" />
      <path
         d="m 590.1294,633.3481 -0.074,-0.315 -0.112,-0.578 -0.111,-0.539 c -0.038,-0.185 -0.055,-0.222 -0.093,-0.259 -0.038,-0.038 -0.092,-0.056 -0.204,-0.056 l -0.15,0 -0.389,0 -0.986,0 -1.154,0.018 -2.305,0 -0.557,-0.018 -0.316,0 -0.15,0 c -0.241,0 -0.278,0.037 -0.278,0.223 0,0.167 0.057,0.223 0.242,0.242 l 0.186,0.017 c 0.39,0.039 0.596,0.093 0.651,0.186 0.036,0.076 0.073,0.186 0.073,0.354 0,0.057 0,0.13 0.019,0.243 l 0,0.333 0,5.058 c 0,0.354 -0.019,0.577 -0.056,0.8 -0.019,0.186 -0.091,0.242 -0.392,0.278 l -0.277,0.037 -0.204,0.02 c -0.205,0.037 -0.242,0.074 -0.242,0.259 0,0.169 0.037,0.205 0.242,0.224 l 0.166,-0.019 0.315,0 0.578,-0.018 1.933,0 1.451,0.018 0.782,0 0.39,0 0.018,0 c 0.316,0 0.354,-0.018 0.373,-0.297 l 0.018,-0.224 0.111,-0.966 c 0.02,-0.168 0.02,-0.185 0.02,-0.205 0,-0.149 -0.112,-0.205 -0.411,-0.205 -0.186,0 -0.186,0.019 -0.259,0.262 -0.093,0.371 -0.352,0.724 -0.614,0.836 -0.186,0.093 -0.428,0.149 -0.93,0.149 l -0.706,0 c -0.373,0 -0.614,0.018 -0.744,0.018 l -0.092,0 -0.188,0 0,-2.991 0.82,0 c 0.724,0 1.245,0.035 1.394,0.072 0.166,0.056 0.26,0.223 0.316,0.614 0.037,0.26 0.056,0.278 0.093,0.335 0.037,0.036 0.056,0.036 0.149,0.036 l 0.111,0 0.111,0 c 0.149,-0.019 0.187,-0.075 0.187,-0.241 l 0,-0.205 0,-0.984 0,-0.893 0.018,-0.169 c 0,-0.241 -0.056,-0.296 -0.277,-0.296 l -0.133,0 -0.017,0 c -0.186,0 -0.205,0.036 -0.242,0.372 -0.056,0.371 -0.093,0.502 -0.15,0.595 -0.073,0.11 -0.184,0.149 -0.799,0.149 l -0.761,0 -0.82,0 0,-2.419 0.02,-0.333 0.017,-0.206 c 0,-0.315 0.169,-0.353 1.116,-0.353 0.541,0 1.023,0.038 1.451,0.111 0.539,0.113 0.818,0.354 1.078,0.874 l 0.113,0.224 c 0.055,0.13 0.11,0.167 0.241,0.167 0.279,0 0.41,-0.074 0.41,-0.223 0,-0.036 -0.02,-0.073 -0.02,-0.112"
         style="fill:#767778;fill-opacity:1;fill-rule:nonzero;stroke:none"
         id="path206"
         inkscape:connector-curvature="0" />
      <path
         d="m 599.4253,633.3481 -0.075,-0.315 -0.112,-0.578 -0.112,-0.539 c -0.036,-0.185 -0.055,-0.222 -0.093,-0.259 -0.037,-0.038 -0.091,-0.056 -0.205,-0.056 l -0.148,0 -0.391,0 -0.985,0 -1.152,0.018 -2.306,0 -0.559,-0.018 -0.315,0 -0.15,0 c -0.241,0 -0.277,0.037 -0.277,0.223 0,0.167 0.055,0.223 0.242,0.242 l 0.185,0.017 c 0.39,0.039 0.595,0.093 0.651,0.186 0.036,0.076 0.074,0.186 0.074,0.354 0,0.057 0,0.13 0.018,0.243 l 0,0.333 0,5.058 c 0,0.354 -0.018,0.577 -0.056,0.8 -0.018,0.186 -0.092,0.242 -0.39,0.278 l -0.279,0.037 -0.203,0.02 c -0.206,0.037 -0.242,0.074 -0.242,0.259 0,0.169 0.036,0.205 0.242,0.224 l 0.166,-0.019 0.316,0 0.577,-0.018 1.933,0 1.452,0.018 0.779,0 0.391,0 0.019,0 c 0.315,0 0.352,-0.018 0.371,-0.297 l 0.02,-0.224 0.11,-0.966 c 0.021,-0.168 0.021,-0.185 0.021,-0.205 0,-0.149 -0.114,-0.205 -0.41,-0.205 -0.186,0 -0.186,0.019 -0.26,0.262 -0.094,0.371 -0.354,0.724 -0.615,0.836 -0.186,0.093 -0.426,0.149 -0.93,0.149 l -0.706,0 c -0.372,0 -0.613,0.018 -0.744,0.018 l -0.093,0 -0.186,0 0,-2.991 0.819,0 c 0.724,0 1.245,0.035 1.395,0.072 0.166,0.056 0.259,0.223 0.316,0.614 0.035,0.26 0.056,0.278 0.092,0.335 0.037,0.036 0.056,0.036 0.149,0.036 l 0.112,0 0.111,0 c 0.149,-0.019 0.186,-0.075 0.186,-0.241 l 0,-0.205 0,-0.984 0,-0.893 0.019,-0.169 c 0,-0.241 -0.056,-0.296 -0.279,-0.296 l -0.129,0 -0.02,0 c -0.185,0 -0.206,0.036 -0.241,0.372 -0.057,0.371 -0.094,0.502 -0.15,0.595 -0.074,0.11 -0.186,0.149 -0.8,0.149 l -0.761,0 -0.819,0 0,-2.419 0.019,-0.333 0.02,-0.206 c 0,-0.315 0.166,-0.353 1.115,-0.353 0.538,0 1.022,0.038 1.452,0.111 0.537,0.113 0.816,0.354 1.076,0.874 l 0.111,0.224 c 0.057,0.13 0.113,0.167 0.242,0.167 0.28,0 0.41,-0.074 0.41,-0.223 0,-0.036 -0.018,-0.073 -0.018,-0.112"
         style="fill:#767778;fill-opacity:1;fill-rule:nonzero;stroke:none"
         id="path210"
         inkscape:connector-curvature="0" />
      <path
         d="m 531.7412,719.5786 c 0,9.767 -7.917,17.686 -17.685,17.686 -9.765,0 -17.685,-7.919 -17.685,-17.686 0,-9.767 7.92,-17.684 17.685,-17.684 0.516,0 1.026,0.022 1.529,0.064 -0.035,0.466 -0.053,0.935 -0.053,1.41 0,0.522 0.022,1.041 0.066,1.553 -0.507,-0.053 -1.021,-0.079 -1.542,-0.079 -8.138,0 -14.736,6.598 -14.736,14.736 0,8.14 6.598,14.738 14.736,14.738 8.14,0 14.739,-6.598 14.739,-14.738 0,-6.538 -4.259,-12.082 -10.154,-14.01 -0.107,-0.717 -0.163,-1.453 -0.163,-2.2 0,-0.306 0.011,-0.609 0.028,-0.909 7.612,1.972 13.235,8.89 13.235,17.119"
         style="fill:#3876c4;fill-opacity:1;fill-rule:nonzero;stroke:none"
         id="path214"
         inkscape:connector-curvature="0" />
      <path
         d="m 608.3755,719.5786 c 0,-9.767 -7.918,-17.684 -17.684,-17.684 -9.244,0 -16.832,7.091 -17.617,16.13 1.05,-0.109 2.069,-0.328 3.044,-0.647 1.062,-7.094 7.181,-12.535 14.573,-12.535 8.139,0 14.738,6.598 14.738,14.736 0,8.14 -6.599,14.738 -14.738,14.738 -7.834,0 -14.241,-6.113 -14.71,-13.828 -0.946,0.245 -1.921,0.413 -2.919,0.498 0.717,9.11 8.336,16.278 17.629,16.278 9.766,0 17.684,-7.919 17.684,-17.686"
         style="fill:#e71b42;fill-opacity:1;fill-rule:nonzero;stroke:none"
         id="path218"
         inkscape:connector-curvature="0" />
      <path
         d="m 586.2427,702.4595 c -0.471,-7.717 -6.875,-13.829 -14.71,-13.829 -8.139,0 -14.738,6.598 -14.738,14.738 0,6.539 4.258,12.082 10.153,14.009 0.107,0.719 0.163,1.454 0.163,2.201 0,0.306 -0.009,0.61 -0.029,0.91 -7.611,-1.973 -13.235,-8.89 -13.235,-17.12 0,-9.768 7.917,-17.684 17.686,-17.684 9.294,0 16.911,7.167 17.628,16.275 -0.999,0.085 -1.975,0.254 -2.918,0.5 m -14.71,15.646 c 7.391,0 13.513,-5.441 14.573,-12.537 0.975,-0.318 1.992,-0.538 3.045,-0.647 -0.787,9.04 -8.375,16.13 -17.618,16.13 -0.516,0 -1.027,-0.021 -1.53,-0.064 0.037,-0.465 0.055,-0.934 0.055,-1.409 0,-0.523 -0.022,-1.041 -0.066,-1.554 0.506,0.055 1.021,0.081 1.541,0.081"
         style="fill:#2b9a40;fill-opacity:1;fill-rule:nonzero;stroke:none"
         id="path222"
         inkscape:connector-curvature="0" />
      <path
         d="m 550.8438,701.96 c -0.717,-9.109 -8.335,-16.276 -17.629,-16.276 -9.766,0 -17.683,7.917 -17.683,17.684 0,8.231 5.621,15.148 13.234,17.12 0.019,-0.3 0.029,-0.604 0.029,-0.909 0,-0.748 -0.057,-1.483 -0.163,-2.201 -5.895,-1.928 -10.154,-7.471 -10.154,-14.01 0,-8.139 6.599,-14.738 14.737,-14.738 7.834,0 14.241,6.113 14.709,13.83 0.945,-0.246 1.921,-0.415 2.92,-0.5 m -19.169,16.065 c 0.044,0.512 0.066,1.031 0.066,1.554 0,0.475 -0.018,0.944 -0.054,1.408 0.504,0.043 1.013,0.065 1.528,0.065 9.244,0 16.832,-7.091 17.618,-16.131 -1.051,0.109 -2.07,0.33 -3.044,0.647 -1.063,7.097 -7.181,12.538 -14.574,12.538 -0.519,0 -1.035,-0.027 -1.54,-0.081"
         style="fill:#f6ac0f;fill-opacity:1;fill-rule:nonzero;stroke:none"
         id="path226"
         inkscape:connector-curvature="0" />
      <path
         d="m 552.374,704.8423 c -7.394,0 -13.512,5.441 -14.573,12.535 -0.974,0.319 -1.992,0.539 -3.045,0.648 0.787,-9.039 8.373,-16.131 17.618,-16.131 0.515,0 1.026,0.023 1.529,0.065 -0.037,0.465 -0.056,0.935 -0.056,1.409 0,0.523 0.023,1.04 0.067,1.553 -0.505,-0.053 -1.021,-0.079 -1.54,-0.079 m 0,32.422 c -9.293,0 -16.912,-7.168 -17.629,-16.277 1,-0.085 1.973,-0.253 2.919,-0.499 0.469,7.715 6.875,13.829 14.71,13.829 8.138,0 14.736,-6.599 14.736,-14.739 0,-6.537 -4.256,-12.082 -10.151,-14.009 -0.107,-0.718 -0.164,-1.454 -0.164,-2.201 0,-0.306 0.01,-0.609 0.029,-0.909 7.611,1.972 13.234,8.889 13.234,17.119 0,9.767 -7.916,17.686 -17.684,17.686"
         style="fill:#1d1c19;fill-opacity:1;fill-rule:nonzero;stroke:none"
         id="path230"
         inkscape:connector-curvature="0" />
      <path
         d="m 642.5562,457.3179 -21.452,-7.724 23.494,0.858 -2.042,6.866 z"
         style="fill:#573242;fill-opacity:1;fill-rule:nonzero;stroke:none"
         id="path254"
         inkscape:connector-curvature="0" />
      <path
         d="m 642.5532,430.4385 15.777,-4.289 -15.774,31.168 -7.06,-7.198 7.057,-19.681 z"
         style="fill:#ec54b2;fill-opacity:1;fill-rule:nonzero;stroke:none"
         id="path266"
         inkscape:connector-curvature="0" />
      <path
         d="m 631.8296,453.4561 -34.026,79.402 -26.677,-2.408 49.977,-80.856"
         style="fill:#f57e4b;fill-opacity:1;fill-rule:nonzero;stroke:none"
         id="path462"
         inkscape:connector-curvature="0" />
      <path
         d="m 567.4375,507.7212 13.07,7.552 -9.382,15.176 -3.688,-22.728 z"
         style="fill:#573242;fill-opacity:1;fill-rule:nonzero;stroke:none"
         id="path466"
         inkscape:connector-curvature="0" />
      <path
         d="m 526.6484,503.2427 -10.276,9.075 52.291,2.955 -1.226,-7.551 -40.789,-4.479 z"
         style="fill:#ec54b2;fill-opacity:1;fill-rule:nonzero;stroke:none"
         id="path470"
         inkscape:connector-curvature="0" />
      <path
         d="m 532.8403,528.106 9.678,-14.311 -26.146,-1.477 16.468,15.788 z"
         style="fill:#573242;fill-opacity:1;fill-rule:nonzero;stroke:none"
         id="path474"
         inkscape:connector-curvature="0" />
      <path
         d="m 440.0518,546.1187 0,-21.767 0,-1.693 84.817,-2.195 7.972,7.642 -92.789,18.013 z"
         style="fill:#0aafde;fill-opacity:1;fill-rule:nonzero;stroke:none"
         id="path478"
         inkscape:connector-curvature="0" />
    </g>
  </g>
</svg>
