<?xml version="1.0" encoding="UTF-8" standalone="no"?>
<!-- Created with Inkscape (http://www.inkscape.org/) -->

<svg
   xmlns:dc="http://purl.org/dc/elements/1.1/"
   xmlns:cc="http://creativecommons.org/ns#"
   xmlns:rdf="http://www.w3.org/1999/02/22-rdf-syntax-ns#"
   xmlns:svg="http://www.w3.org/2000/svg"
   xmlns="http://www.w3.org/2000/svg"
   xmlns:sodipodi="http://sodipodi.sourceforge.net/DTD/sodipodi-0.dtd"
   xmlns:inkscape="http://www.inkscape.org/namespaces/inkscape"
   width="800"
   height="300"
   id="svg3987"
   version="1.1"
   inkscape:version="0.48.2 r9819"
   inkscape:export-filename="/opt/backup/Projects/Bype/IOC/IOCVillagePlaza/IOCTabletServer/IOCTabletServer/static/common/sp/tab.png"
   inkscape:export-xdpi="90"
   inkscape:export-ydpi="90"
   sodipodi:docname="New document 5">
  <defs
     id="defs3989" />
  <sodipodi:namedview
     id="base"
     pagecolor="#ffffff"
     bordercolor="#666666"
     borderopacity="1.0"
     inkscape:pageopacity="0.0"
     inkscape:pageshadow="2"
     inkscape:zoom="0.98994949"
     inkscape:cx="785.7344"
     inkscape:cy="330.29437"
     inkscape:document-units="px"
     inkscape:current-layer="g296"
     showgrid="false"
     inkscape:window-width="1920"
     inkscape:window-height="1056"
     inkscape:window-x="0"
     inkscape:window-y="24"
     inkscape:window-maximized="1" />
  <metadata
     id="metadata3992">
    <rdf:RDF>
      <cc:Work
         rdf:about="">
        <dc:format>image/svg+xml</dc:format>
        <dc:type
           rdf:resource="http://purl.org/dc/dcmitype/StillImage" />
        <dc:title></dc:title>
      </cc:Work>
    </rdf:RDF>
  </metadata>
  <g
     inkscape:label="Layer 1"
     inkscape:groupmode="layer"
     id="layer1"
     transform="translate(0,-752.36218)">
    <g
       transform="matrix(4.8668364,0,0,-4.8668364,-4301.116,2786.0117)"
       id="g3938">
      <g
         transform="translate(1019.8638,406.8252)"
         id="g288">
        <path
           inkscape:connector-curvature="0"
           id="path290"
           style="fill:#573242;fill-opacity:1;fill-rule:nonzero;stroke:none"
           d="M 0,0 -7.909,-6.041 1.735,-22.973 0,0 z" />
      </g>
      <g
         transform="translate(1048.1967,409.0645)"
         id="g292">
        <path
           inkscape:connector-curvature="0"
           id="path294"
           style="fill:#0aafde;fill-opacity:1;fill-rule:nonzero;stroke:none"
           d="m 0,0 -28.748,-2.239 0.634,-8.396 L 0,-20.41" />
      </g>
      <g
         transform="translate(1004.064,387.1914)"
         id="g296">
        <path
           inkscape:connector-curvature="0"
           id="path298"
           style="fill:#ec54b2;fill-opacity:1;fill-rule:nonzero;stroke:none"
           d="m 0,0 17.535,-3.339 -19.387,34.033 -9.028,0 L 0,0 z" />
        <text
           style="font-size:3.08208418px"
           y="-75.409378"
           x="-10.300256"
           id="text82"
           transform="scale(1,-1)">
          <tspan
             style="font-size:2.05472279px;font-variant:normal;font-weight:normal;font-stretch:normal;writing-mode:lr-tb;fill:#231f20;fill-opacity:1;fill-rule:nonzero;stroke:none;font-family:Helvetica Neue;-inkscape-font-specification:HelveticaNeue"
             x="-10.300256 -9.0448236 -7.9023986 -6.7229857 -6.2668395 -5.8106933 -4.783319"
             y="-75.409378"
             sodipodi:role="line"
             id="tspan84">English</tspan>
          <tspan
             style="font-size:2.05472279px;font-variant:normal;font-weight:normal;font-stretch:normal;writing-mode:lr-tb;fill:#231f20;fill-opacity:1;fill-rule:nonzero;stroke:none;font-family:Helvetica Neue;-inkscape-font-specification:HelveticaNeue"
             x="-8.5886774 -7.2572112 -6.0777984 -5.393579 -4.7463317 -3.6039059 -2.4245083 -1.2820828 -0.17868967 -34.457634 -33.202202 -32.174828 -30.956385 -29.852991 -28.710566 -27.531168 -21.730677 -20.551264 -19.867044 -18.763651 -17.621225 -16.517847 -15.414453 -14.958306"
             y="-69.896553"
             sodipodi:role="line"
             id="tspan86">PortuguêsEspañolFrançais</tspan>
        </text>
        <text
           xml:space="preserve"
           style="font-size:6.16149092px;font-style:normal;font-variant:normal;font-weight:normal;font-stretch:normal;text-align:center;line-height:125%;letter-spacing:0px;word-spacing:0px;text-anchor:middle;fill:#000000;fill-opacity:1;stroke:none;font-family:Helvetica Neue LT Com;-inkscape-font-specification:Helvetica Neue LT Com"
           x="30.566412"
           y="-12.808463"
           id="text4146"
           sodipodi:linespacing="125%"
           transform="scale(1,-1)"><tspan
             sodipodi:role="line"
             id="tspan4148"
             x="30.566412"
             y="-12.808463"
             style="fill:#eeeeec">Español</tspan></text>
      </g>
      <g
         transform="translate(1000.7651,419.5947)"
         id="g300"
         inkscape:export-filename="/opt/backup/Projects/Bype/IOC/IOCVillagePlaza/IOCTabletServer/IOCTabletServer/static/sp/tab.png"
         inkscape:export-xdpi="90"
         inkscape:export-ydpi="90">
        <path
           inkscape:connector-curvature="0"
           id="path302"
           style="fill:#ffffff;fill-opacity:1;fill-rule:nonzero;stroke:none"
           d="m 0,0 11.189,-18.811 7.91,6.041 30.854,2.24 0,9.671 L 0,0 z" />
      </g>
      <g
         transform="translate(1013.4966,414.3672)"
         id="g376">
        <path
           inkscape:connector-curvature="0"
           id="path378"
           style="fill:#3876c4;fill-opacity:1;fill-rule:nonzero;stroke:none"
           d="m 0,0 c 0,1.137 -0.921,2.058 -2.056,2.058 -1.135,0 -2.056,-0.921 -2.056,-2.058 0,-1.135 0.921,-2.056 2.056,-2.056 0.06,0 0.119,0.003 0.178,0.008 -0.005,0.055 -0.007,0.11 -0.007,0.164 0,0.061 0.003,0.12 0.008,0.181 -0.059,-0.007 -0.118,-0.01 -0.179,-0.01 -0.947,0 -1.714,0.768 -1.714,1.713 0,0.947 0.767,1.715 1.714,1.715 0.946,0 1.713,-0.768 1.713,-1.715 0,-0.759 -0.494,-1.404 -1.18,-1.628 -0.013,-0.083 -0.019,-0.169 -0.019,-0.256 0,-0.036 0.002,-0.071 0.004,-0.105 C -0.653,-1.761 0,-0.956 0,0" />
      </g>
      <g
         transform="translate(1022.4067,414.3672)"
         id="g380">
        <path
           inkscape:connector-curvature="0"
           id="path382"
           style="fill:#e71b42;fill-opacity:1;fill-rule:nonzero;stroke:none"
           d="m 0,0 c 0,-1.135 -0.921,-2.056 -2.056,-2.056 -1.074,0 -1.957,0.826 -2.048,1.876 0.122,-0.012 0.24,-0.038 0.353,-0.075 0.124,-0.824 0.836,-1.458 1.695,-1.458 0.947,0 1.713,0.768 1.713,1.713 0,0.947 -0.766,1.715 -1.713,1.715 -0.911,0 -1.656,-0.711 -1.711,-1.609 -0.109,0.029 -0.222,0.048 -0.338,0.059 0.083,1.059 0.969,1.893 2.049,1.893 C -0.921,2.058 0,1.137 0,0" />
      </g>
      <g
         transform="translate(1019.8335,412.3779)"
         id="g384">
        <path
           inkscape:connector-curvature="0"
           id="path386"
           style="fill:#2b9a40;fill-opacity:1;fill-rule:nonzero;stroke:none"
           d="m 0,0 c -0.055,-0.897 -0.8,-1.607 -1.711,-1.607 -0.945,0 -1.713,0.766 -1.713,1.712 0,0.761 0.495,1.405 1.181,1.629 0.013,0.083 0.018,0.169 0.018,0.255 0,0.036 -10e-4,0.072 -0.004,0.107 -0.884,-0.23 -1.538,-1.034 -1.538,-1.991 0,-1.136 0.921,-2.055 2.056,-2.055 1.082,0 1.967,0.833 2.051,1.891 C 0.223,-0.048 0.109,-0.029 0,0 m -1.711,1.818 c 0.859,0 1.572,-0.631 1.695,-1.457 C 0.098,0.324 0.216,0.299 0.338,0.286 0.246,1.337 -0.635,2.161 -1.711,2.161 -1.77,2.161 -1.83,2.159 -1.889,2.154 -1.884,2.1 -1.882,2.045 -1.882,1.989 c 0,-0.059 -0.003,-0.12 -0.008,-0.179 0.059,0.005 0.119,0.008 0.179,0.008" />
      </g>
      <g
         transform="translate(1015.7183,412.3193)"
         id="g388">
        <path
           inkscape:connector-curvature="0"
           id="path390"
           style="fill:#f6ac0f;fill-opacity:1;fill-rule:nonzero;stroke:none"
           d="m 0,0 c -0.084,-1.059 -0.97,-1.892 -2.051,-1.892 -1.135,0 -2.055,0.919 -2.055,2.056 0,0.956 0.653,1.761 1.538,1.99 0.003,-0.035 0.004,-0.07 0.004,-0.106 0,-0.086 -0.006,-0.172 -0.019,-0.255 -0.686,-0.225 -1.181,-0.868 -1.181,-1.629 0,-0.946 0.768,-1.713 1.713,-1.713 0.912,0 1.656,0.71 1.711,1.608 C -0.23,0.029 -0.117,0.011 0,0 m -2.229,1.868 c 0.004,0.06 0.007,0.12 0.007,0.18 0,0.056 -0.002,0.11 -0.007,0.165 0.059,0.005 0.119,0.007 0.178,0.007 1.075,0 1.957,-0.824 2.049,-1.875 -0.122,0.012 -0.24,0.038 -0.353,0.075 -0.124,0.825 -0.836,1.457 -1.696,1.457 -0.06,0 -0.119,-0.003 -0.178,-0.009" />
      </g>
      <g
         transform="translate(1015.896,412.6543)"
         id="g392">
        <path
           inkscape:connector-curvature="0"
           id="path394"
           style="fill:#1d1c19;fill-opacity:1;fill-rule:nonzero;stroke:none"
           d="M 0,0 C -0.859,0 -1.571,0.634 -1.695,1.458 -1.809,1.495 -1.927,1.521 -2.049,1.533 -1.957,0.482 -1.075,-0.343 0,-0.343 c 0.06,0 0.119,0.003 0.178,0.008 -0.005,0.055 -0.007,0.109 -0.007,0.164 0,0.061 0.003,0.12 0.008,0.181 C 0.12,0.003 0.061,0 0,0 m 0,3.771 c -1.081,0 -1.967,-0.834 -2.051,-1.893 0.117,-0.011 0.231,-0.03 0.34,-0.059 C -1.656,2.717 -0.912,3.428 0,3.428 0.945,3.428 1.713,2.66 1.713,1.713 1.713,0.954 1.219,0.309 0.533,0.085 0.521,0.002 0.514,-0.084 0.514,-0.171 c 0,-0.036 0.002,-0.071 0.004,-0.105 0.884,0.228 1.538,1.033 1.538,1.989 C 2.056,2.85 1.135,3.771 0,3.771" />
      </g>
    </g>
  </g>
</svg>
